<svg width="41" height="41" viewBox="0 0 41 41" fill="none" xmlns="http://www.w3.org/2000/svg">
<path fill-rule="evenodd" clip-rule="evenodd" d="M19.3213 2.05472C19.934 1.57811 20.7921 1.57811 21.4049 2.05472L36.6772 13.9332C37.0906 14.2547 37.3323 14.749 37.3323 15.2727V33.9389C37.3323 35.289 36.796 36.5839 35.8413 37.5386C34.8866 38.4933 33.5917 39.0297 32.2416 39.0297H8.48458C7.13442 39.0297 5.83956 38.4933 4.88485 37.5386C3.93015 36.5839 3.3938 35.289 3.3938 33.9389V15.2727C3.3938 14.749 3.63556 14.2547 4.04891 13.9332L19.3213 2.05472ZM6.78765 16.1026V33.9389C6.78765 34.3889 6.96644 34.8206 7.28467 35.1388C7.60291 35.457 8.03453 35.6358 8.48458 35.6358H32.2416C32.6916 35.6358 33.1232 35.457 33.4415 35.1388C33.7597 34.8206 33.9385 34.3889 33.9385 33.9389V16.1026L20.3631 5.54396L6.78765 16.1026Z" fill="black"/>
<path fill-rule="evenodd" clip-rule="evenodd" d="M13.5754 20.3629C13.5754 19.4258 14.3352 18.666 15.2724 18.666H25.4539C26.3911 18.666 27.1509 19.4258 27.1509 20.3629V37.3322C27.1509 38.2694 26.3911 39.0291 25.4539 39.0291C24.5167 39.0291 23.757 38.2694 23.757 37.3322V22.0599H16.9693V37.3322C16.9693 38.2694 16.2096 39.0291 15.2724 39.0291C14.3352 39.0291 13.5754 38.2694 13.5754 37.3322V20.3629Z" fill="black"/>
</svg>
