<svg width="49" height="49" viewBox="0 0 49 49" fill="none" xmlns="http://www.w3.org/2000/svg">
<g clip-path="url(#clip0_1_1008)">
<path d="M24.5 4.41613C31.0415 4.41613 31.8173 4.44063 34.4021 4.55904C41.0416 4.86121 44.1429 8.0115 44.445 14.602C44.5635 17.1847 44.5859 17.9605 44.5859 24.502C44.5859 31.0456 44.5614 31.8194 44.445 34.4021C44.1408 40.9865 41.0477 44.1429 34.4021 44.445C31.8173 44.5635 31.0456 44.588 24.5 44.588C17.9585 44.588 17.1827 44.5635 14.6 44.445C7.94413 44.1408 4.85917 40.9763 4.557 34.4C4.43858 31.8173 4.41408 31.0435 4.41408 24.5C4.41408 17.9585 4.44063 17.1847 4.557 14.6C4.86121 8.0115 7.95433 4.85917 14.6 4.557C17.1847 4.44063 17.9585 4.41613 24.5 4.41613ZM24.5 0C17.8462 0 17.0132 0.0285833 14.3999 0.147C5.50229 0.555333 0.557375 5.49208 0.149042 14.3978C0.0285833 17.0132 0 17.8462 0 24.5C0 31.1538 0.0285833 31.9888 0.147 34.6022C0.555333 43.4998 5.49208 48.4447 14.3978 48.853C17.0132 48.9714 17.8462 49 24.5 49C31.1538 49 31.9888 48.9714 34.6022 48.853C43.4916 48.4447 48.4488 43.5079 48.851 34.6022C48.9714 31.9888 49 31.1538 49 24.5C49 17.8462 48.9714 17.0132 48.853 14.3999C48.4528 5.51046 43.51 0.557375 34.6042 0.149042C31.9888 0.0285833 31.1538 0 24.5 0ZM24.5 11.9193C17.5522 11.9193 11.9193 17.5522 11.9193 24.5C11.9193 31.4478 17.5522 37.0828 24.5 37.0828C31.4478 37.0828 37.0808 31.4498 37.0808 24.5C37.0808 17.5522 31.4478 11.9193 24.5 11.9193ZM24.5 32.6667C19.99 32.6667 16.3333 29.0121 16.3333 24.5C16.3333 19.99 19.99 16.3333 24.5 16.3333C29.01 16.3333 32.6667 19.99 32.6667 24.5C32.6667 29.0121 29.01 32.6667 24.5 32.6667ZM37.5789 8.48313C35.9538 8.48313 34.6369 9.8 34.6369 11.4231C34.6369 13.0463 35.9538 14.3631 37.5789 14.3631C39.202 14.3631 40.5169 13.0463 40.5169 11.4231C40.5169 9.8 39.202 8.48313 37.5789 8.48313Z" fill="#1E1E1E"/>
</g>
<defs>
<clipPath id="clip0_1_1008">
<rect width="49" height="49" fill="white"/>
</clipPath>
</defs>
</svg>
