<svg width="41" height="42" viewBox="0 0 41 42" fill="none" xmlns="http://www.w3.org/2000/svg">
<path d="M33.7518 39.4363C33.5991 39.4363 33.4464 39.4363 33.2767 39.4193C27.7956 38.8254 22.4673 36.9248 17.8686 33.9382C13.5923 31.2231 9.89304 27.5238 7.17796 23.2476C4.19137 18.6319 2.29081 13.2866 1.71386 7.80555C1.64598 7.07587 1.73082 6.38013 1.95143 5.70136C2.17203 5.02259 2.54535 4.41169 3.02049 3.88564C3.49563 3.3596 4.07258 2.95233 4.71742 2.66386C5.37922 2.37538 6.07496 2.22266 6.78767 2.22266H11.8784C13.0663 2.22266 14.2881 2.64689 15.2384 3.46141C16.1717 4.25897 16.7826 5.37894 16.9523 6.60073C17.1559 8.11099 17.5292 9.60429 18.0553 11.0127C18.3946 11.9291 18.4795 12.9133 18.2589 13.8636C18.0553 14.8139 17.5801 15.6963 16.9014 16.375L15.6796 17.5968C17.6819 20.7192 20.3291 23.3833 23.4685 25.3857L24.6902 24.1639C25.386 23.4682 26.2684 22.993 27.2187 22.8064C28.1689 22.6028 29.1532 22.6706 30.0695 23.01C31.478 23.5361 32.9713 23.9094 34.4645 24.113C35.7203 24.2827 36.8402 24.9106 37.6548 25.8609C38.4523 26.8111 38.8935 28.0159 38.8596 29.2547V34.3285C38.8596 35.0412 38.7238 35.72 38.4354 36.3818C38.1469 37.0266 37.7226 37.6206 37.2136 38.0957C36.6875 38.5708 36.0766 38.9442 35.3979 39.1648C34.8548 39.3514 34.3118 39.4363 33.7518 39.4363ZM11.9124 5.61651H11.8954H6.78767C6.5501 5.61651 6.3295 5.66742 6.1089 5.76923C5.8883 5.85408 5.68466 5.98983 5.53194 6.15953C5.36225 6.32922 5.24346 6.53285 5.17559 6.77042C5.10771 6.99102 5.07377 7.22859 5.09074 7.46616C5.61679 12.4042 7.33068 17.2235 10.0288 21.4149C12.4893 25.2839 15.8323 28.6268 19.7013 31.0874C23.8757 33.8025 28.695 35.4994 33.6161 36.0424C33.8197 36.0594 34.0573 36.0254 34.2779 35.9576C34.4985 35.8897 34.7021 35.7539 34.8888 35.6012C35.0754 35.4485 35.2112 35.2449 35.296 35.0243C35.3979 34.8037 35.4318 34.5661 35.4318 34.3285V29.2377C35.4318 29.2208 35.4318 29.2038 35.4318 29.2038C35.4488 28.7796 35.296 28.3893 35.0245 28.0669C34.753 27.7444 34.3797 27.5408 33.9724 27.4899C32.2416 27.2693 30.5107 26.8281 28.8477 26.2172C28.5423 26.0984 28.2029 26.0815 27.8974 26.1493C27.575 26.2172 27.2865 26.3699 27.049 26.6075L24.9108 28.7626C24.3678 29.3056 23.5363 29.4074 22.8745 29.0341C18.3607 26.4717 14.6275 22.7215 12.0481 18.2247C11.6918 17.512 11.7936 16.6805 12.3366 16.1375L14.4917 13.9824C14.7123 13.7618 14.865 13.4733 14.9329 13.1509C15.0008 12.8285 14.9838 12.506 14.865 12.2006C14.2372 10.5376 13.8129 8.80673 13.5754 7.0589C13.5245 6.66861 13.3208 6.29528 13.0154 6.02377C12.7099 5.76923 12.3196 5.61651 11.9124 5.61651Z" fill="black"/>
</svg>
