<svg width="39" height="45" viewBox="0 0 39 45" fill="none" xmlns="http://www.w3.org/2000/svg">
<path d="M30.8084 7.3075C29.1283 5.38884 28.2023 2.92527 28.2025 0.375H20.6063V30.8583C20.5489 32.5083 19.8528 34.0716 18.6649 35.2182C17.477 36.3648 15.8902 37.0052 14.2392 37.0042C10.7484 37.0042 7.84752 34.1525 7.84752 30.6125C7.84752 26.3842 11.9284 23.2129 16.1321 24.5158V16.7475C7.65085 15.6167 0.226685 22.205 0.226685 30.6125C0.226685 38.7987 7.01169 44.625 14.2146 44.625C21.9338 44.625 28.2025 38.3562 28.2025 30.6125V15.1496C31.2828 17.3617 34.981 18.5486 38.7734 18.5421V10.9458C38.7734 10.9458 34.1517 11.1671 30.8084 7.3075Z" fill="black"/>
</svg>
